<svg viewBox="0 0 1080 1080" fill="none" xmlns="http://www.w3.org/2000/svg">      <defs>  <filter id="filter" x="-20%" y="-20%" width="140%" height="140%" filterUnits="objectBoundingBox" primitiveUnits="userSpaceOnUse" color-interpolation-filters="linearRGB">    <feMorphology operator="dilate" radius="20 20" in="SourceAlpha" result="morphology"/>    <feFlood flood-color="#ffffff" flood-opacity="1" result="flood"/>    <feComposite in="flood" in2="morphology" operator="in" result="composite"/>    <feMerge result="merge">          <feMergeNode in="composite" result="mergeNode"/>      <feMergeNode in="SourceGraphic" result="mergeNode1"/>      </feMerge>  </filter></defs>      <g id="notion-avatar" filter="url(#filter)">        <g id="notion-avatar-face" fill="#ffffff">      <!--?xml version="1.0" encoding="UTF-8"?-->    <title>Face/ 8</title>    <g id="Face/-8" stroke="none" stroke-width="1" fill-rule="evenodd" stroke-linecap="round" stroke-linejoin="round">        <path d="M532,379 C664.54834,379 772,486.45166 772,619 C772,751.54834 724.54834,899 592,899 C492.560218,899 373.476049,816.010833 320.189513,718.584987 C317.498129,718.859681 314.765451,719 312,719 C267.81722,719 232,683.18278 232,639 C232,599.134956 261.158843,566.080325 299.312086,560.00055 C325.599297,455.979213 419.809919,379 532,379 Z M295.858895,624.545187 L304.141105,655.454813" id="Path" stroke="#000000" stroke-width="24"/>    </g>    </g><g id="notion-avatar-nose">      <!--?xml version="1.0" encoding="UTF-8"?-->    <title>Nose/ 7</title>    <g id="Nose/-7" stroke="none" stroke-width="1" fill="none" fill-rule="evenodd" stroke-linecap="round" stroke-linejoin="round">        <path d="M649,600 C669,606.666667 679,620 679,640 C679,660 669,673.333333 649,680" id="Path" stroke="#000000" stroke-width="16"/>    </g>    </g><g id="notion-avatar-mouth">      <!--?xml version="1.0" encoding="UTF-8"?-->    <title>Mouth/ 3</title>    <g id="Mouth/-3" stroke="none" stroke-width="1" fill="none" fill-rule="evenodd" stroke-linecap="round" stroke-linejoin="round">        <g id="Group" transform="translate(475.000000, 729.000000)" stroke="#000000" stroke-width="16">            <path d="M66,41.0869565 C93.79487,40.6243036 114.628203,38.8851732 128.5,35.8695652 C142.371797,32.8539572 161.538463,25.8974355 186,15" id="Path"/>            <path d="M161,25.4347826 C161,49.7826087 153.5,65.4347826 138.5,72.3913043 C123.5,79.3478261 101.833333,68.9130435 73.5,41.0869565" id="Path"/>            <path d="M2.14164194,45 C-1.3880481,36.6867754 -0.554714768,27.8534421 4.64164194,18.5 C9.83799864,9.14655793 17.3379986,2.97989127 27.1416419,0" id="Path"/>        </g>    </g>    </g><g id="notion-avatar-eyes">      <!--?xml version="1.0" encoding="UTF-8"?-->    <title>Eyes/ 0</title>    <g id="Eyes/-0" stroke="none" stroke-width="1" fill="none" fill-rule="evenodd">        <path d="M570,516 C583.254834,516 594,526.745166 594,540 C594,553.254834 583.254834,564 570,564 C556.745166,564 546,553.254834 546,540 C546,526.745166 556.745166,516 570,516 Z M708,516 C721.254834,516 732,526.745166 732,540 C732,553.254834 721.254834,564 708,564 C694.745166,564 684,553.254834 684,540 C684,526.745166 694.745166,516 708,516 Z" id="Combined-Shape" fill="#000000"/>    </g>    </g><g id="notion-avatar-eyebrows">      <!--?xml version="1.0" encoding="UTF-8"?-->    <title>Eyebrows/ 5</title>    <g id="Eyebrows/-5" stroke="none" stroke-width="1" fill="none" fill-rule="evenodd" stroke-linecap="round" stroke-linejoin="round">        <g id="Group" transform="translate(517.000000, 471.000000)" stroke="#000000" stroke-width="24">            <line x1="1" y1="27.4172651" x2="76.8548788" y2="2" id="Path" transform="translate(38.927439, 14.708633) rotate(2.524843) translate(-38.927439, -14.708633) "/>            <line x1="166" y1="27.4172651" x2="241.854879" y2="2" id="Path" transform="translate(203.927439, 14.708633) scale(-1, 1) rotate(2.524843) translate(-203.927439, -14.708633) "/>        </g>    </g>    </g><g id="notion-avatar-glasses">      <!--?xml version="1.0" encoding="UTF-8"?-->    <title>Glasses/ 10</title>    <g id="Glasses/-10" stroke="none" stroke-width="1" fill="none" fill-rule="evenodd">        <g id="Group" transform="translate(289.000000, 475.000000)" fill="#000000">            <rect id="Rectangle" x="201" y="0" width="300" height="23.4"/>            <path d="M329.571429,0 L370.642857,0 L370.642857,50.7333333 C363.797619,41.4888889 356.952381,36.8666667 350.107143,36.8666667 C343.261905,36.8666667 336.416667,41.4888889 329.571429,50.7333333 L329.571429,0 Z" id="Rectangle"/>            <path d="M209.035714,16.4666667 L226.635493,91.6470116 C228.329435,98.8829668 234.782715,104 242.214302,104 L295.809254,104 C302.413177,104 308.338607,99.9426587 310.726587,93.7856009 L340.714286,16.4666667 L340.714286,16.4666667 L209.035714,16.4666667 Z" id="Path" stroke="#000000" stroke-width="16" stroke-linecap="round" stroke-linejoin="round"/>            <path d="M359.5,16.4666667 L377.099778,91.6470116 C378.793721,98.8829668 385.247,104 392.678588,104 L446.273539,104 C452.877463,104 458.802893,99.9426587 461.190872,93.7856009 L491.178571,16.4666667 L491.178571,16.4666667 L359.5,16.4666667 Z" id="Path" stroke="#000000" stroke-width="16" stroke-linecap="round" stroke-linejoin="round" transform="translate(425.339286, 60.233333) scale(-1, 1) translate(-425.339286, -60.233333) "/>            <polygon id="Path" stroke="#000000" stroke-width="4" stroke-linecap="round" stroke-linejoin="round" points="201 2 4 66 0 75 201 22"/>        </g>    </g>    </g><g id="notion-avatar-hair">      <!--?xml version="1.0" encoding="UTF-8"?-->    <title>Hairstyle/ 9</title>    <g id="Hairstyle/-9" stroke="none" stroke-width="1" fill="none" fill-rule="evenodd" stroke-linecap="round" stroke-linejoin="round">        <path d="M600.328004,173.378628 C706.51335,164.088614 796.476165,200.935719 801.265577,255.678942 C803.695286,283.450641 783.737843,310.49297 749.618561,331.611505 C765.063752,338.699548 774.521929,348.01487 775.46916,358.841774 C776.714595,373.077161 763.016568,387.294038 739.738901,398.89906 L740.480755,402.50703 C740.650616,403.32637 740.823745,404.157384 741,405 C746.333333,406.333333 749,411.666667 749,421 C749,430.333333 737,447 713,471 C701.666667,455.666667 690,445.333333 678,440 C666.920655,435.075847 654.532414,432.679571 640.835277,432.811173 C637.222979,442.406663 631.069509,450.272246 622.5,455.219854 C608.589242,463.251234 591.202794,461.924641 575.013121,453.322279 C570.690288,458.087969 565.680763,462.179157 560,465.458947 C538.447788,477.902122 511.612082,476.138657 486.418588,463.265159 L485.395785,464.617496 C480.437333,471.120347 474.397833,478.222483 465,486 C445.666667,502 416.333333,512 377,516 L391,672 L371,672 L325,562 L289,568 C273.634723,510.922397 239,431 256,379 C266.31189,347.457747 308.818577,301.919892 356,277 C356.84754,276.552353 357.701097,276.115198 358.559964,275.688267 C352.18227,272.103338 343.995473,268.20694 334,264 C351.648204,258 368.981537,255 386,255 C397.257459,255 408.50684,256.312688 419.748142,258.938063 L421.437432,258.728011 C421.992551,258.660372 422.539594,258.595072 423.078261,258.531995 C444.228158,216.299002 514.42929,180.893791 600.328004,173.378628 Z" id="Path" stroke="#000000" stroke-width="12" fill="#000000"/>    </g>    </g><g id="notion-avatar-accessories">      <!--?xml version="1.0" encoding="UTF-8"?-->    <title>Accessories/ 0</title>    <g id="Accessories/-0" stroke="none" stroke-width="1" fill="none" fill-rule="evenodd"/>    </g><g id="notion-avatar-details">      <!--?xml version="1.0" encoding="UTF-8"?-->    <title>Details/ 0</title>    <g id="Details/-0" stroke="none" stroke-width="1" fill="none" fill-rule="evenodd"/>    </g><g id="notion-avatar-beard">      <!--?xml version="1.0" encoding="UTF-8"?-->    <title>Beard/ 0</title>    <g id="Beard/-0" stroke="none" stroke-width="1" fill="none" fill-rule="evenodd"/>    </g>      </g>      </svg>