<svg viewBox="0 0 1080 1080" fill="none" xmlns="http://www.w3.org/2000/svg">      <defs>  <filter id="filter" x="-20%" y="-20%" width="140%" height="140%" filterUnits="objectBoundingBox" primitiveUnits="userSpaceOnUse" color-interpolation-filters="linearRGB">    <feMorphology operator="dilate" radius="20 20" in="SourceAlpha" result="morphology"/>    <feFlood flood-color="#ffffff" flood-opacity="1" result="flood"/>    <feComposite in="flood" in2="morphology" operator="in" result="composite"/>    <feMerge result="merge">          <feMergeNode in="composite" result="mergeNode"/>      <feMergeNode in="SourceGraphic" result="mergeNode1"/>      </feMerge>  </filter></defs>      <g id="notion-avatar" filter="url(#filter)">        <g id="notion-avatar-face" fill="#ffffff">      <!--?xml version="1.0" encoding="UTF-8"?-->    <title>Face/ 4</title>    <g id="Face/-4" stroke="none" stroke-width="1" fill-rule="evenodd" stroke-linecap="round" stroke-linejoin="round">        <path d="M532,379 C664.54834,379 772,486.45166 772,619 C772,751.54834 764.54834,899 592,899 C462.715227,899 358.747776,816.220491 314.739381,718.954345 C313.831676,718.98455 312.917642,719 312,719 C267.81722,719 232,683.18278 232,639 C232,599.134956 261.158843,566.080325 299.312086,560.00055 C325.599297,455.979213 419.809919,379 532,379 Z M295.858895,624.545187 L304.141105,655.454813" id="Path" stroke="#000000" stroke-width="24"/>    </g>    </g><g id="notion-avatar-nose">      <!--?xml version="1.0" encoding="UTF-8"?-->    <title>Nose/ 4</title>    <g id="Nose/-4" stroke="none" stroke-width="1" fill="none" fill-rule="evenodd" stroke-linecap="round" stroke-linejoin="round">        <path d="M636.843426,596.000252 C661.659687,637.453214 673.277876,666.226337 671.697992,682.319621 C670.118108,698.412905 655.181344,703.444023 626.8877,697.412976" id="Line" stroke="#000000" stroke-width="16" transform="translate(649.363766, 647.939652) rotate(1.032339) translate(-649.363766, -647.939652) "/>    </g>    </g><g id="notion-avatar-mouth">      <g id="Mouth/ 14"><g id="Group"><path id="Path" fill-rule="evenodd" clip-rule="evenodd" d="M555.87 801.555C536.147 789.209 521.396 768.019 521.396 768.019C521.396 768.019 569 757.637 609 757.319C649 757 696.604 768.019 696.604 768.019C696.604 768.019 681.852 789.209 662.129 801.555C653.101 807.207 625 810 609.443 810C593.886 810 564.806 807.15 555.87 801.555Z" stroke="black" stroke-width="16" stroke-linecap="round" stroke-linejoin="round"/><path id="Path_2" d="M569.322 801C569.322 801 589.161 793 609 793C628.838 793 648.677 801 648.677 801" stroke="black" stroke-width="8" stroke-linecap="round" stroke-linejoin="round"/></g></g>    </g><g id="notion-avatar-eyes">      <!--?xml version="1.0" encoding="UTF-8"?-->    <title>Eyes/ 0</title>    <g id="Eyes/-0" stroke="none" stroke-width="1" fill="none" fill-rule="evenodd">        <path d="M570,516 C583.254834,516 594,526.745166 594,540 C594,553.254834 583.254834,564 570,564 C556.745166,564 546,553.254834 546,540 C546,526.745166 556.745166,516 570,516 Z M708,516 C721.254834,516 732,526.745166 732,540 C732,553.254834 721.254834,564 708,564 C694.745166,564 684,553.254834 684,540 C684,526.745166 694.745166,516 708,516 Z" id="Combined-Shape" fill="#000000"/>    </g>    </g><g id="notion-avatar-eyebrows">      <!--?xml version="1.0" encoding="UTF-8"?-->    <title>Eyebrows/ 0</title>    <g id="Eyebrows/-0" stroke="none" stroke-width="1" fill="none" fill-rule="evenodd" stroke-linecap="round" stroke-linejoin="round">        <g id="Group" transform="translate(525.000000, 492.000000)" stroke="#000000" stroke-width="16">            <path d="M0,16 C12.8888889,5.33333333 27.8888889,0 45,0 C62.1111111,0 77.1111111,5.33333333 90,16" id="Path"/>            <path d="M138,16 C150.888889,5.33333333 165.888889,0 183,0 C200.111111,0 215.111111,5.33333333 228,16" id="Path"/>        </g>    </g>    </g><g id="notion-avatar-glasses">      <!--?xml version="1.0" encoding="UTF-8"?-->    <title>Glasses/ 6</title>    <g id="Glasses/-6" stroke="none" stroke-width="1" fill="none" fill-rule="evenodd" stroke-linecap="round" stroke-linejoin="round">        <g id="Group" transform="translate(289.000000, 489.000000)" fill="#000000" stroke="#000000" stroke-width="4">            <path d="M507.197382,9.82478969 C513.43226,17.7007378 515.213654,62.5936419 486.711355,88.5842707 C469.404358,104.366146 429.38069,108.487745 402.985851,98.8230032 C386.082673,92.6337314 377.827731,74.7226245 375.444668,70.5905602 L375.374248,70.46959 C367.818365,57.6210186 359.693569,48.7969114 350.999861,43.9972684 C342.444422,48.7207266 334.439709,57.3419022 326.985986,69.8607952 L326.625752,70.46959 C324.338153,74.359588 316.088066,92.5712135 299.014149,98.8230032 C272.61931,108.487745 232.595642,104.366146 215.288645,88.5842707 C186.786346,62.5936419 188.56774,17.7007378 194.802618,9.82478969 C201.037496,1.94884159 243.790945,-3.56432208 278.528122,2.7364364 C313.265299,9.03719488 328.491531,25.281971 335.53272,27.9394703 C339.929408,29.5988766 344.89638,30.3949699 350.433636,30.3277503 L350.434736,30.3022547 L351,30.3179093 L351.565264,30.3022547 L351.566163,30.3277478 C357.1035,30.3949891 362.070539,29.5988966 366.46728,27.9394703 C373.508469,25.281971 388.734701,9.03719488 423.471878,2.7364364 C458.209055,-3.56432208 500.962504,1.94884159 507.197382,9.82478969 Z M209.053767,15.3379534 C189.458437,28.7270651 207.272374,75.1951589 225.977008,88.5842707 C244.681642,101.973382 289.216484,98.8230032 299.904846,91.7346499 C310.593209,84.6462966 334.642023,53.930099 326.625752,34.2402288 C318.60948,14.5503585 237.556067,1.16124678 209.053767,15.3379534 Z M492.946233,15.3379534 C464.443933,1.16124678 383.39052,14.5503585 375.374248,34.2402288 C367.357977,53.930099 391.406791,84.6462966 402.095154,91.7346499 C412.783516,98.8230032 457.318358,101.973382 476.022992,88.5842707 C494.727626,75.1951589 512.541563,28.7270651 492.946233,15.3379534 Z" id="Combined-Shape"/>            <polygon id="Path" points="199 20 4 52 0 61 199 41"/>        </g>    </g>    </g><g id="notion-avatar-hair">      <!--?xml version="1.0" encoding="UTF-8"?-->    <title>Hairstyle/ 4</title>    <g id="Hairstyle/-4" stroke="none" stroke-width="1" fill="none" fill-rule="evenodd" stroke-linecap="round" stroke-linejoin="round">        <path d="M611.547059,230.462612 C698.094118,236.925225 725,287 724.588542,333.554902 C748.638568,343.002989 766,370.025589 766,401.886689 C766,419.541793 748.333333,441.912896 713,469 C658.648092,471.689594 614.775916,470.090396 581.383471,464.202407 C514.014286,452.323402 462.038862,412.237022 441,412 C419.961138,411.762978 402.482014,416.588965 384,454 C365.517986,491.411035 385.822655,520.524164 384,551 C376.5907,588.904446 370.755044,622.451207 366.493029,651.640282 L366,655 L328.116663,564.824988 L287.145773,564.824988 C265.130495,517.303157 245,413 269,379 C293,345 310,351 346,360 C354.615309,315.384317 393.523749,291.762537 430.724791,270.310819 L433,269 C466,250 525,224 611.547059,230.462612 Z" id="Path" stroke="#000000" stroke-width="12" fill="#000000"/>    </g>    </g><g id="notion-avatar-accessories">      <!--?xml version="1.0" encoding="UTF-8"?-->    <title>Accessories/ 0</title>    <g id="Accessories/-0" stroke="none" stroke-width="1" fill="none" fill-rule="evenodd"/>    </g><g id="notion-avatar-details">      <!--?xml version="1.0" encoding="UTF-8"?-->    <title>Details/ 0</title>    <g id="Details/-0" stroke="none" stroke-width="1" fill="none" fill-rule="evenodd"/>    </g><g id="notion-avatar-beard">      <!--?xml version="1.0" encoding="UTF-8"?-->    <title>Beard/ 0</title>    <g id="Beard/-0" stroke="none" stroke-width="1" fill="none" fill-rule="evenodd"/>    </g>      </g>      </svg>